<svg xmlns="http://www.w3.org/2000/svg" viewBox="0 0 512 512"><path fill="#fff" d="M121 32C91.6 32 66.1 52.5 59.9 81.2L2.4 347.4C.8 354.9 0 362.6 0 370.3V416c0 35.3 28.7 64 64 64H448c35.3 0 64-28.7 64-64V370.3c0-7.7-.8-15.4-2.4-22.9L451.9 81.2C445.7 52.5 420.2 32 390.8 32H121zM88.9 275.7l30.4-152c1.5-7.4 8-12.7 15.5-12.7H388c7.5 0 14 5.3 15.5 12.7l30.4 152H409.4c-18.4 0-35.5 9.4-45.3 24.9l-12.5 19.7c-9.8 15.5-26.9 24.9-45.3 24.9h-88.4c-18.4 0-35.5-9.4-45.3-24.9l-12.5-19.7c-9.8-15.5-26.9-24.9-45.3-24.9H88.9z"/></svg>
